<svg width="23" height="31" viewBox="0 0 23 31" fill="none" xmlns="http://www.w3.org/2000/svg">
<path fill-rule="evenodd" clip-rule="evenodd" d="M21.173 9.81634C20.852 6.47892 17.9711 5.36046 14.3307 5.04148V0.410156H11.5136V4.91787C10.7739 4.91787 10.0163 4.93182 9.26473 4.94777V0.410156H6.44766L6.44566 5.03749L6.41546 5.03808L6.41542 5.03808C5.81576 5.04984 5.22584 5.06141 4.65135 5.06141V5.04746L0.765666 5.04546V8.05592C0.765666 8.05592 2.84707 8.01605 2.81118 8.05393C3.95356 8.05393 4.32439 8.71583 4.43204 9.28802V14.5633C4.51179 14.5633 4.61347 14.5673 4.7291 14.5832H4.43204L4.43005 21.9738C4.38021 22.3327 4.16888 22.9049 3.37141 22.9068C3.40729 22.9387 1.3239 22.9068 1.3239 22.9068L0.763672 26.2722H4.43204C4.84567 26.2722 5.25563 26.2766 5.66103 26.2809C5.92391 26.2838 6.18487 26.2866 6.44367 26.2881L6.44566 30.9713H9.26074V26.338C10.0323 26.3539 10.7799 26.3599 11.5116 26.3599L11.5096 30.9713H14.3267V26.2981C19.0637 26.027 22.3831 24.8327 22.7938 20.3828C23.1268 16.8002 21.4421 15.1993 18.7527 14.5533C20.3895 13.724 21.4122 12.2586 21.173 9.81634ZM17.2296 19.8286C17.2296 23.0424 12.1752 22.9696 9.86987 22.9364C9.66533 22.9334 9.48243 22.9308 9.32662 22.9308V16.7244C9.52136 16.7249 9.7584 16.7195 10.0271 16.7135C12.3968 16.6603 17.2296 16.5518 17.2296 19.8286ZM9.79785 13.8926C11.7268 13.9231 15.9177 13.9892 15.9177 11.0744C15.9195 8.09107 11.8811 8.19794 9.90673 8.25019C9.68424 8.25608 9.48796 8.26127 9.32662 8.26127V13.8874C9.46105 13.8873 9.61981 13.8898 9.79785 13.8926Z" fill="white"/>
</svg>
